<?xml version="1.0" encoding="utf-8"?>
<!-- Generator: Adobe Illustrator 16.0.0, SVG Export Plug-In . SVG Version: 6.00 Build 0)  -->
<!DOCTYPE svg PUBLIC "-//W3C//DTD SVG 1.1//EN" "http://www.w3.org/Graphics/SVG/1.1/DTD/svg11.dtd">
<svg version="1.1" id="Layer_2" xmlns="http://www.w3.org/2000/svg" xmlns:xlink="http://www.w3.org/1999/xlink" x="0px" y="0px"
	 width="93px" height="36.5px" viewBox="0 0 93 36.5" enable-background="new 0 0 93 36.5" xml:space="preserve">
<g>
	<path fill="#404D73" d="M89.83,34.125H3.213c-0.83,0-1.504-0.673-1.504-1.5V3.75c0-0.827,0.675-1.5,1.504-1.5H89.83
		c0.829,0,1.504,0.673,1.504,1.5v28.875C91.334,33.452,90.659,34.125,89.83,34.125z M3.213,3.25c-0.278,0-0.504,0.225-0.504,0.5
		v28.875c0,0.275,0.226,0.5,0.504,0.5H89.83c0.277,0,0.504-0.225,0.504-0.5V3.75c0-0.275-0.227-0.5-0.504-0.5H3.213z"/>
</g>
<g>
	<g>
		<path fill="#414D74" d="M15.83,4.833c0.753,0,1.506,0,2.259,0c0.221,0.038,0.441,0.085,0.664,0.115
			c4.819,0.638,8.859,4.316,9.931,9.059c0.13,0.574,0.213,1.159,0.318,1.739c0,0.752,0,1.504,0,2.258
			c-0.047,0.305-0.098,0.609-0.144,0.914c-0.838,5.421-5.15,8.785-9.211,9.691c-0.557,0.123-1.122,0.205-1.683,0.306
			c-0.69,0-1.38,0-2.069,0c-0.213-0.036-0.424-0.081-0.639-0.108c-4.848-0.685-8.909-4.396-10.027-9.183
			c-0.129-0.558-0.208-1.123-0.31-1.683c0-0.712,0-1.422,0-2.134c0.019-0.056,0.042-0.111,0.056-0.17
			c0.215-0.941,0.315-1.93,0.662-2.822C7.184,8.831,9.97,6.171,14.175,5.12C14.716,4.985,15.277,4.927,15.83,4.833z M16.964,26.689
			c4.558,0.074,9.888-3.609,9.858-9.74c-0.026-5.537-4.322-9.875-9.771-9.945c-6.007-0.078-9.991,5.193-9.958,9.829
			C7.131,22.221,11.571,26.688,16.964,26.689z"/>
	</g>
	<g>
		<path fill="#414D74" d="M16.828,14.886c-0.534,0.278-1.051,0.549-1.594,0.831c-0.073-0.11-0.139-0.212-0.208-0.31
			c-0.327-0.467-0.776-0.691-1.342-0.645c-0.597,0.051-1.025,0.362-1.22,0.929c-0.258,0.752-0.268,1.521-0.008,2.274
			c0.208,0.604,0.629,0.98,1.287,1.025c0.675,0.044,1.199-0.215,1.521-0.83c0.029-0.056,0.061-0.107,0.109-0.195
			c0.49,0.247,0.97,0.49,1.498,0.756c-0.12,0.185-0.222,0.358-0.343,0.521c-1.496,1.992-4.81,1.81-5.982-0.33
			c-0.905-1.65-0.483-3.981,0.892-5.088C12.823,12.707,15.816,12.827,16.828,14.886z"/>
	</g>
	<g>
		<path fill="#414D74" d="M23.829,18.72c-0.551,0.959-1.324,1.604-2.386,1.809c-1.385,0.271-2.646,0.014-3.604-1.122
			c-0.633-0.751-0.79-1.665-0.781-2.612c0.008-0.818,0.177-1.601,0.676-2.273c0.801-1.077,1.907-1.474,3.211-1.386
			c1.176,0.079,2.131,0.549,2.754,1.589c0.022,0.035,0.039,0.073,0.079,0.154c-0.521,0.278-1.04,0.555-1.579,0.843
			c-0.064-0.099-0.116-0.185-0.172-0.27c-0.337-0.504-0.808-0.746-1.413-0.687c-0.64,0.063-1.06,0.42-1.241,1.031
			c-0.214,0.728-0.225,1.462,0.035,2.185c0.218,0.605,0.641,0.972,1.298,1.013c0.651,0.038,1.158-0.215,1.484-0.793
			c0.036-0.064,0.071-0.129,0.108-0.19c0.005-0.008,0.017-0.011,0.047-0.031C22.826,18.217,23.316,18.464,23.829,18.72z"/>
	</g>
</g>
<g>
	<g>
		<path fill="#414D74" d="M72.12,4.584c0.532,0,1.067,0,1.601,0c0.08,0.017,0.159,0.041,0.239,0.051
			c3.362,0.323,6.308,2.916,7.052,6.218c0.09,0.409,0.146,0.826,0.219,1.24c0,0.533,0,1.067,0,1.601
			c-0.017,0.052-0.041,0.102-0.045,0.154c-0.35,3.98-3.639,6.505-6.277,7.08c-0.393,0.084-0.791,0.146-1.188,0.219
			c-0.515,0-1.029,0-1.545,0c-0.062-0.016-0.121-0.039-0.184-0.045c-3.396-0.383-6.34-2.996-7.117-6.331
			c-0.086-0.374-0.141-0.755-0.208-1.133c0-0.515,0-1.029,0-1.545c0.019-0.079,0.043-0.158,0.051-0.238
			c0.341-3.325,2.958-6.297,6.218-7.05C71.327,4.715,71.727,4.657,72.12,4.584z M66.557,10.654
			c-1.084,2.897,0.012,6.726,3.688,8.386c3.383,1.526,7.011-0.003,8.642-2.898c-1.02-0.455-2.037-0.907-3.068-1.366
			c-0.332,1.178-1.17,1.683-2.291,1.855c0,0.418,0,0.819,0,1.23c-0.336,0-0.641,0-0.971,0c0-0.423,0-0.825,0-1.239
			c-0.961-0.043-1.787-0.362-2.507-1.008c0.4-0.385,0.781-0.752,1.171-1.125c0.373,0.324,0.805,0.583,1.317,0.673
			c0.403,0.069,0.806,0.094,1.183-0.119c0.273-0.154,0.356-0.407,0.34-0.702c-0.016-0.266-0.152-0.43-0.402-0.536
			c-0.762-0.323-1.516-0.661-2.271-0.998C69.781,12.094,68.178,11.377,66.557,10.654z M74.46,10.942
			c-0.134-0.068-0.315-0.179-0.511-0.259c-0.481-0.197-0.975-0.263-1.475-0.058c-0.215,0.088-0.341,0.239-0.359,0.479
			c-0.021,0.25,0.174,0.295,0.338,0.368c1.77,0.792,3.539,1.583,5.311,2.374c0.576,0.257,1.153,0.512,1.733,0.769
			c0.918-3.425-0.838-6.791-4.067-8.091c-1.722-0.691-3.477-0.632-5.187,0.1c-1.239,0.53-2.177,1.427-2.961,2.542
			c1.069,0.479,2.098,0.94,3.138,1.406c0.389-0.982,1.157-1.369,2.143-1.481c0-0.413,0-0.822,0-1.236c0.336,0,0.642,0,0.984,0
			c0,0.43,0,0.838,0,1.244c0.775,0.07,1.446,0.3,2.059,0.789C75.214,10.248,74.844,10.588,74.46,10.942z"/>
	</g>
</g>
<g>
	<g>
		<path fill="#414D74" d="M56.62,12.291c0,0.278,0,0.555,0,0.832c-0.013,0.091-0.032,0.181-0.038,0.271
			c-0.139,2.05-0.963,3.773-2.463,5.175c-1.92,1.795-4.205,2.535-6.787,2.146c-3.11-0.471-5.193-2.314-6.418-5.169
			c-0.299-0.696-0.401-1.445-0.497-2.192c0-0.431,0-0.861,0-1.292c0.013-0.075,0.031-0.149,0.04-0.226
			c0.281-2.599,1.593-4.57,3.729-5.998c1.731-1.158,3.681-1.46,5.701-1.111c3.194,0.555,5.299,2.444,6.35,5.488
			C56.464,10.872,56.497,11.598,56.62,12.291z M41.885,12.703c-0.095,3.46,3.025,6.626,6.629,6.631
			c3.235,0.004,6.646-2.704,6.646-6.608c0-3.581-2.966-6.66-6.636-6.665C44.594,6.055,41.784,9.527,41.885,12.703z"/>
	</g>
	<g>
		<path fill="#414D74" d="M50.677,14.019c-0.288,0-0.579,0-0.896,0c0,1.312,0,2.6,0,3.899c-0.854,0-1.682,0-2.529,0
			c0-1.296,0-2.583,0-3.891c-0.312,0-0.604,0-0.927,0c0-0.095,0-0.169,0-0.243c0-0.991,0-1.983,0-2.976
			c0-0.439,0.193-0.632,0.631-0.632c1.046,0,2.092-0.001,3.138,0c0.385,0.001,0.604,0.193,0.604,0.568
			c0.01,1.055,0.003,2.109,0.002,3.16C50.7,13.936,50.688,13.964,50.677,14.019z"/>
	</g>
	<g>
		<path fill="#414D74" d="M48.503,7.483c0.644-0.001,1.146,0.494,1.146,1.13c0,0.634-0.506,1.14-1.141,1.14
			c-0.632,0-1.129-0.506-1.128-1.149C47.382,7.967,47.865,7.486,48.503,7.483z"/>
	</g>
</g>
<g>
	<path fill="#414D74" d="M90.96,27.08l-0.13-2.95c0,0-56.62,0-58.91,0s-2,1.08-4.09,3.12c-4,4.58-8.71,4.56-10.91,4.54
		C7.96,31.5,5.69,26.55,4.83,25.53c-0.96-1.16-2.54-1.45-2.54-1.45s-0.25,6.479-0.25,8.4c0,1.909,2.19,1.119,2.19,1.119l7.62,0.341
		l14.07-0.521c0,0,62.04,0.45,63.91,0.21C91.7,33.37,90.96,27.08,90.96,27.08z M47.87,30.64c-0.12,0.21-0.26,0.38-0.44,0.49
		c-0.17,0.12-0.39,0.21-0.65,0.271c-0.26,0.06-0.59,0.09-0.97,0.09h-2.28v-5.32h2.25c0.45,0,0.82,0.061,1.1,0.16
		c0.271,0.11,0.49,0.28,0.65,0.5c0.149,0.229,0.229,0.46,0.229,0.7c0,0.229-0.069,0.439-0.21,0.64c-0.14,0.2-0.35,0.37-0.63,0.49
		c0.37,0.09,0.64,0.26,0.84,0.479c0.19,0.23,0.29,0.5,0.29,0.811C48.05,30.2,47.99,30.43,47.87,30.64z M51.62,29.24v2.25h-0.79
		v-2.25l-2.311-3.07h0.961l1.18,1.61c0.22,0.3,0.42,0.6,0.609,0.89c0.181-0.27,0.4-0.59,0.65-0.93l1.16-1.57h0.93L51.62,29.24z
		 M72.69,31.49H71.88L68.73,27.31v4.181H67.97v-5.32h0.82l3.14,4.18v-4.18h0.761V31.49z M78.19,31.12
		c-0.44,0.31-0.96,0.46-1.58,0.46c-0.65,0-1.17-0.12-1.58-0.35c-0.4-0.24-0.71-0.57-0.92-1.021c-0.21-0.44-0.32-0.91-0.32-1.42
		c0-0.55,0.12-1.04,0.36-1.45c0.239-0.41,0.569-0.72,1.02-0.939c0.44-0.21,0.92-0.32,1.45-0.32c0.6,0,1.1,0.14,1.51,0.41
		c0.41,0.27,0.69,0.649,0.851,1.14l-0.78,0.16c-0.141-0.38-0.34-0.66-0.601-0.84c-0.27-0.181-0.6-0.26-1-0.26
		c-0.46,0-0.85,0.09-1.149,0.29c-0.311,0.189-0.53,0.46-0.65,0.789c-0.13,0.33-0.189,0.671-0.189,1.021c0,0.45,0.069,0.84,0.22,1.18
		s0.38,0.59,0.689,0.761c0.311,0.159,0.65,0.25,1.021,0.25c0.44,0,0.82-0.12,1.13-0.341c0.3-0.229,0.51-0.569,0.62-1.02l0.79,0.18
		C78.92,30.38,78.62,30.82,78.19,31.12z M46.58,29.12c-0.2-0.061-0.49-0.09-0.87-0.09h-1.39v1.83h1.49c0.26,0,0.44-0.011,0.54-0.03
		c0.18-0.03,0.34-0.07,0.46-0.14c0.12-0.07,0.22-0.171,0.3-0.301s0.12-0.27,0.12-0.439c0-0.2-0.061-0.37-0.171-0.521
		C46.94,29.28,46.79,29.18,46.58,29.12z M46.37,28.34c0.2-0.05,0.36-0.14,0.46-0.26s0.15-0.28,0.15-0.46s-0.05-0.34-0.14-0.47
		c-0.1-0.131-0.23-0.23-0.41-0.28c-0.18-0.04-0.48-0.07-0.91-0.07h-1.2v1.61h1.3C45.97,28.41,46.22,28.38,46.37,28.34z"/>
</g>
</svg>
