<?xml version="1.0" encoding="utf-8"?>
<!-- Generator: Adobe Illustrator 16.0.0, SVG Export Plug-In . SVG Version: 6.00 Build 0)  -->
<!DOCTYPE svg PUBLIC "-//W3C//DTD SVG 1.1//EN" "http://www.w3.org/Graphics/SVG/1.1/DTD/svg11.dtd">
<svg version="1.1" id="Layer_1" xmlns="http://www.w3.org/2000/svg" xmlns:xlink="http://www.w3.org/1999/xlink" x="0px" y="0px"
	 width="131px" height="31.603px" viewBox="0 0 600 144.603" enable-background="new 0 0 600 144.603" xml:space="preserve">
<g>
	<path fill-rule="evenodd" clip-rule="evenodd" fill="#FFFFFF" d="M588.692,134.063c-0.812,0.118-1.624,0.333-2.438,0.336
		c-6.93,0.032-13.86,0.027-20.791,0.028c-1.942,0-2.398-0.532-2.398-2.851c-0.003-12.541,0.002-25.082,0.006-37.622
		c0-6.326,0.144-12.656-0.061-18.974c-0.097-2.985-0.835-5.953-1.339-8.918c-0.277-1.635-1.373-2.692-2.729-3.547
		c-4.535-2.865-10.553-0.729-11.671,4.449c-0.724,3.346-0.972,6.85-0.98,10.285c-0.046,18.315,0.058,36.629,0.09,54.945
		c0.002,1.882-0.463,2.227-2.42,2.223c-6.655-0.011-13.311-0.017-19.966,0.001c-2.722,0.008-2.947-0.178-2.946-2.839
		c0.003-16.391,0.01-32.783,0.007-49.173c-0.001-3.136,0.093-6.279-0.11-9.402c-0.135-2.06-0.506-4.163-1.152-6.12
		c-1.507-4.562-8.694-7.067-12.821-4.598c-1.266,0.757-1.877,1.806-1.873,3.391c0.047,21.782,0.038,43.563,0.042,65.343
		c0,0.605,0.01,1.212-0.026,1.815c-0.063,1.05-0.629,1.607-1.696,1.606c-7.26-0.002-14.521-0.007-21.781-0.01
		c-1.096,0-1.594-0.602-1.644-1.639c-0.024-0.495-0.022-0.99-0.022-1.485c0.001-26.842,0.003-53.684,0.005-80.525
		c0-0.165,0-0.33-0.001-0.495c-0.018-4,0.952-5.225,4.887-6.35c3.693-1.056,7.35-2.248,11.061-3.245
		c8.192-2.201,16.512-2.993,24.77-0.703c3.761,1.042,7.278,2.999,10.854,4.654c0.886,0.41,1.54,0.671,2.396,0.026
		c5.042-3.806,10.896-5.398,17.053-5.901c6.431-0.524,12.755,0.276,18.817,2.541c6.724,2.513,11.834,6.952,14.796,13.541
		c1.294,2.877,3.745,10.034,4.085,10.551C588.692,88.288,588.692,111.176,588.692,134.063z"/>
	<path fill-rule="evenodd" clip-rule="evenodd" fill="#FFFFFF" d="M11,26.117c0.351-0.574,0.897-1.109,1.024-1.729
		C14.109,14.204,20.802,8.71,30.519,6.635c3.995-0.853,8.165-1.166,12.26-1.213C56.36,5.266,69.945,5.344,83.528,5.329
		c1.919-0.001,2.336,0.575,1.565,2.292c-2.045,4.558-4.152,9.089-6.158,13.664c-0.769,1.754-1.316,3.604-1.985,5.403
		c-0.887,2.383-1.518,2.788-4.004,2.784c-7.974-0.014-15.948-0.023-23.922,0.005c-1.203,0.004-2.416,0.143-3.604,0.343
		c-2.725,0.459-3.674,1.481-3.759,4.307c-0.125,4.177-0.122,8.357-0.158,12.537c-0.021,2.475-0.011,4.949-0.015,7.423
		c-0.002,2.019,0.378,2.445,2.388,2.446c11.769,0.003,23.538-0.013,35.306-0.022c0.33,0,0.66-0.019,0.99-0.01
		c1.241,0.033,1.738,0.617,1.253,1.815c-0.474,1.17-1.019,2.311-1.511,3.475c-2.391,5.657-4.773,11.317-7.161,16.976
		c-0.516,1.224-1.477,1.666-2.762,1.658c-8.578-0.049-17.156-0.077-25.735-0.108c-2.254-0.007-2.762,0.467-2.761,2.671
		c0.011,16.113,0.029,32.225,0.057,48.339c0.005,2.861-0.219,3.081-3.04,3.075c-8.194-0.013-16.388,0.015-24.583-0.007
		c-0.977-0.002-1.954-0.216-2.931-0.332C11,98.082,11,62.1,11,26.117z"/>
	<path fill-rule="evenodd" clip-rule="evenodd" fill="#FFFFFF" d="M247.885,135c-7.87-1.688-14.356-5.55-18.713-12.397
		c-1.468-2.31-2.584-5.029-3.122-7.71c-1.484-7.406-1.772-14.936-1.723-22.497c0.105-16.008,0.027-32.018,0.025-48.027
		c0-2.751,0.28-3.005,3.02-2.999c6.656,0.015,13.312,0.012,19.969,0.001c2.646-0.005,2.903,0.231,2.903,2.931
		c-0.001,17.384,0.021,34.769-0.026,52.152c-0.011,3.973,0.634,7.732,2.324,11.361c1.298,2.788,3.587,4.23,6.338,4.727
		c4.953,0.893,9.886,0.432,14.571-1.49c0.723-0.295,1.29-1.386,1.569-2.229c0.264-0.792,0.051-1.741,0.051-2.621
		c-0.003-20.63-0.005-41.26-0.006-61.891c0-2.792,0.178-2.941,3.019-2.937c6.657,0.011,13.313,0.007,19.97-0.009
		c2.518-0.006,2.871,0.315,2.867,2.827c-0.049,27.176-0.107,54.352-0.131,81.528c-0.002,1.449-0.525,2.579-1.775,3.077
		c-3.867,1.539-7.737,3.11-11.714,4.317c-3.035,0.921-6.24,1.276-9.353,1.963C277.392,135.201,248.42,135.115,247.885,135z"/>
	<path fill-rule="evenodd" clip-rule="evenodd" fill="#FFFFFF" d="M110.496,134.88c-7.16-1.798-13.323-5.173-17.581-11.367
		c-2.937-4.271-4.058-9.259-4.63-14.305c-0.464-4.09-0.629-8.23-0.646-12.35c-0.07-17.55-0.036-35.1-0.037-52.65
		c0-2.574,0.312-2.839,2.827-2.832c6.711,0.02,13.423,0.017,20.135-0.007c2.378-0.008,2.752,0.315,2.752,2.757
		c-0.002,17.33-0.008,34.659-0.012,51.99c-0.001,3.829,0.445,7.574,2.146,11.072c1.437,2.952,3.689,4.982,6.975,5.45
		c4.748,0.676,9.464,0.343,13.94-1.493c0.782-0.32,1.439-1.402,1.751-2.276c0.295-0.831,0.059-1.848,0.059-2.783
		c-0.003-20.576-0.006-41.151-0.008-61.727c0-2.684,0.372-2.996,3.065-2.985c6.712,0.026,13.423,0.016,20.135-0.002
		c2.18-0.006,2.554,0.285,2.554,2.404c0,22.446-0.008,44.892-0.024,67.338c-0.003,4.842-0.109,9.683-0.047,14.523
		c0.022,1.753-0.739,2.703-2.22,3.459c-6.353,3.248-13.209,4.714-20.156,5.92C140.749,135.141,111.271,135.074,110.496,134.88z"/>
	<path fill-rule="evenodd" clip-rule="evenodd" fill="#FFFFFF" d="M429.017,134.926c-4.695-1.104-9.24-2.634-13.061-5.632
		c-5.523-4.336-9.238-9.818-9.769-17.069c-0.131-1.792,0.293-2.323,2.09-2.329c6.49-0.022,12.979-0.004,19.47-0.026
		c1.259-0.003,1.909,0.597,2.193,1.781c1.031,4.293,3.923,6.721,8.122,7.39c4.22,0.672,7.964-0.567,10.773-3.942
		c1.851-2.224,1.874-5.898,0.293-8.715c-1.814-3.23-4.636-5.467-7.647-7.363c-3.329-2.095-6.902-3.805-10.391-5.642
		c-5.649-2.976-11.284-6.073-15.976-10.404c-7.475-6.901-10.642-15.525-7.868-25.545c1.723-6.221,5.58-11.034,11.649-13.962
		c10.388-5.012,21.19-6.045,32.296-3.479c5.029,1.162,9.91,3.132,13.667,6.897c4.747,4.761,7.22,10.683,7.973,17.324
		c0.212,1.867-0.412,2.446-2.377,2.45c-5.885,0.012-11.771-0.01-17.654,0.021c-1.394,0.008-2.133-0.627-2.453-1.935
		c-0.327-1.329-0.575-2.705-1.115-3.949c-1.839-4.243-5.606-5.253-9.68-5.136c-3.062,0.088-6.13,0.616-8.175,3.487
		c-2.318,3.251-1.846,8.201,1.213,10.78c4.646,3.917,9.821,7.02,15.225,9.762c6.473,3.285,12.952,6.57,18.025,11.956
		c6.914,7.337,10,15.764,7.311,25.836c-0.804,3.011-2.618,5.391-4.485,7.786c-3.253,4.168-7.695,6.452-12.53,8.115
		c-1.965,0.676-4.02,1.084-6.008,1.698C449.61,135.24,429.799,135.109,429.017,134.926z"/>
	<path fill-rule="evenodd" clip-rule="evenodd" fill="#FFFFFF" d="M212.698,136.044c-0.527-0.219-1.035-0.545-1.582-0.64
		c-4.269-0.734-8.663-1.016-12.796-2.208c-9.566-2.761-17.155-8.342-21.783-17.352c-2.04-3.97-3.358-8.248-3.478-12.793
		c-0.042-1.594-0.086-3.189-0.086-4.784c-0.007-29.867-0.008-59.734-0.01-89.602c-0.001-2.933,0.129-3.03,3.073-3.024
		c6.656,0.014,13.311,0.003,19.966-0.02c2.17-0.008,2.587,0.356,2.587,2.584c0,10.121-0.006,20.241-0.021,30.362
		c-0.003,2.515,0.3,2.836,2.85,2.831c5.72-0.016,11.44-0.037,17.16-0.049c1.883-0.004,2.273,0.666,1.427,2.329
		c-3.164,6.209-6.343,12.411-9.444,18.652c-0.706,1.422-1.648,2.064-3.228,2.006c-2.198-0.082-4.399-0.036-6.6-0.057
		c-1.483-0.014-2.196,0.611-2.19,2.187c0.04,10.835-0.023,21.672,0.078,32.507c0.026,2.873,0.021,5.805,2.105,8.283
		c1.725,2.052,3.945,3.327,6.361,3.867c3.183,0.711,6.5,0.914,9.773,1.074c1.514,0.074,2.12,0.535,2.117,1.985
		c-0.008,6.216-0.02,12.431,0.012,18.646c0.007,1.4-0.606,2.117-1.944,2.417c-0.599,0.135-1.141,0.525-1.708,0.8
		C214.458,136.044,213.578,136.044,212.698,136.044z"/>
	<path fill-rule="evenodd" clip-rule="evenodd" fill="#FFFFFF" d="M389.967,4c0.406,0.396,0.746,0.932,1.231,1.169
		c5.08,2.488,8.046,6.48,8.222,12.163c0.176,5.686-2.795,9.718-7.619,12.358c-1.288,0.705-2.954,0.846-4.472,0.98
		c-4.659,0.416-8.889-0.507-11.929-4.455c-3.019-3.921-3.47-8.314-2.21-12.968c1.032-3.814,3.551-6.344,7.026-8.059
		c0.47-0.231,0.782-0.785,1.166-1.189C384.245,4,387.104,4,389.967,4z"/>
	<path fill-rule="evenodd" clip-rule="evenodd" fill="#FFFFFF" d="M306.786,102.503c0-8.909-0.034-17.817,0.012-26.725
		c0.034-6.526,1.573-12.71,5.396-18.035c4.139-5.762,9.433-10.218,16.232-12.714c6.475-2.377,13.207-3.341,20.023-3.578
		c7.03-0.245,14.075-0.087,21.113-0.096c1.552-0.001,2.024,0.722,1.317,2.082c-3.444,6.625-6.932,13.227-10.351,19.865
		c-0.598,1.163-1.488,1.26-2.592,1.265c-5.057,0.024-10.133-0.144-15.163,0.252c-2.232,0.175-4.523,1.261-6.511,2.412
		c-1.938,1.122-3.065,3.124-3.234,5.482c-0.108,1.479-0.239,2.962-0.24,4.443c-0.013,18.091-0.005,36.184-0.001,54.275
		c0.001,2.808-0.205,2.997-2.982,2.993c-6.818-0.011-13.637-0.002-20.457,0.003c-2.261,0.002-2.578-0.292-2.58-2.56
		c-0.005-9.789-0.001-19.577-0.001-29.365C306.773,102.503,306.779,102.503,306.786,102.503z"/>
	<path fill-rule="evenodd" clip-rule="evenodd" fill="#FFFFFF" d="M398.654,88.019c-0.003,14.463-0.003,28.927-0.002,43.391
		c0,2.803-0.246,3.027-2.974,3.021c-6.6-0.014-13.198-0.002-19.798,0.012c-2.044,0.004-2.592-0.487-2.592-2.477
		c0.019-28.707,0.041-57.413,0.064-86.119c0.003-4.459,0.01-4.455,4.402-4.457c6.05-0.003,12.1-0.009,18.148-0.021
		c2.42-0.006,2.75,0.309,2.75,2.762C398.656,58.762,398.655,73.391,398.654,88.019z"/>
</g>
</svg>
