<?xml version="1.0" standalone="no"?>
<!DOCTYPE svg PUBLIC "-//W3C//DTD SVG 20010904//EN"
 "http://www.w3.org/TR/2001/REC-SVG-20010904/DTD/svg10.dtd">
<svg version="1.0" xmlns="http://www.w3.org/2000/svg"
 width="480.000000pt" height="290.000000pt" viewBox="0 0 480.000000 290.000000"
 preserveAspectRatio="xMidYMid meet">
<metadata>
Created by potrace 1.15, written by Peter Selinger 2001-2017
</metadata>
<g transform="translate(0.000000,290.000000) scale(0.100000,-0.100000)"
fill="#000000" stroke="none">
<path d="M2150 2225 c-41 -7 -94 -18 -116 -25 -40 -12 -42 -15 -68 -90 -49
-139 -65 -275 -50 -419 l7 -62 61 -34 c161 -90 381 -155 591 -175 173 -16 157
-21 198 64 78 163 122 377 115 564 -4 107 1 101 -108 136 -166 53 -451 72
-630 41z m435 -65 c33 -6 98 -20 144 -32 l84 -22 -6 -125 c-7 -132 -23 -222
-58 -331 -17 -54 -55 -148 -64 -158 -1 -1 -49 2 -106 8 -202 20 -347 60 -540
149 l-67 30 -7 78 c-8 91 6 206 36 310 l22 72 51 11 c139 28 371 33 511 10z"/>
<path d="M2585 1213 c-31 -8 -83 -51 -100 -83 -22 -43 -19 -111 5 -138 21 -22
40 -29 40 -14 0 5 -9 17 -19 26 -40 36 -31 113 18 160 34 32 104 46 140 27 22
-12 21 -12 -12 -54 -18 -23 -41 -55 -51 -70 -9 -15 -21 -25 -26 -22 -6 4 -10
-6 -10 -21 0 -52 -77 -154 -117 -154 -33 0 -40 26 -14 54 26 27 27 42 4 54
-22 12 -58 -1 -71 -25 -17 -29 -25 -7 -12 31 22 69 -11 100 -75 70 -19 -9 -58
-43 -86 -76 -52 -59 -101 -94 -119 -83 -18 11 -10 33 14 39 29 7 86 70 86 95
0 28 -26 44 -57 37 -16 -4 -56 -36 -91 -73 -34 -36 -65 -63 -68 -60 -3 3 15
49 41 103 39 82 45 102 36 121 -6 13 -14 23 -19 23 -4 0 -24 -27 -43 -60 -29
-52 -37 -60 -57 -55 -29 7 -68 -14 -114 -61 -40 -43 -91 -85 -96 -80 -1 2 6
27 18 55 16 42 18 55 8 71 -7 11 -16 20 -20 20 -10 0 -39 -32 -77 -85 -35 -49
-32 -58 7 -22 l25 22 -15 -30 c-25 -49 -29 -81 -14 -94 18 -15 59 4 96 44 l25
27 5 -33 c7 -47 30 -57 68 -31 l30 22 14 -21 c16 -26 43 -20 87 16 l28 24 11
-24 c21 -47 87 -39 150 18 18 17 22 18 22 5 0 -9 8 -26 18 -38 23 -28 61 -22
98 15 35 35 65 36 87 2 18 -29 53 -47 89 -47 42 0 107 41 132 82 23 38 26 40
76 42 45 1 56 6 82 35 27 30 30 39 26 83 -4 33 -13 57 -29 74 -24 25 -21 33
16 47 6 3 7 7 4 11 -4 4 -18 2 -32 -5 -19 -9 -34 -9 -58 0 -33 11 -68 13 -104
4z"/>
<path d="M1569 1174 c-54 -45 -87 -58 -105 -43 -19 15 -18 28 4 52 16 19 16
19 -8 12 -66 -20 -95 -94 -46 -117 20 -9 32 -7 64 10 l40 21 -5 -82 c-3 -52
-12 -98 -25 -125 -44 -94 29 -57 92 48 25 40 66 97 92 124 37 41 49 49 59 39
18 -18 44 -16 63 3 21 20 22 94 2 94 -26 0 -100 -64 -148 -128 l-48 -63 0 69
c0 44 5 75 15 88 35 46 10 45 -46 -2z"/>
<path d="M3422 1120 c-29 -52 -36 -59 -57 -54 -33 8 -61 -9 -132 -82 -87 -89
-103 -83 -51 19 38 75 4 88 -66 26 -45 -40 -47 -40 -40 -15 6 25 -8 56 -25 56
-4 0 -25 -24 -47 -54 -56 -77 -96 -100 -74 -42 23 63 3 104 -46 92 -15 -4 -51
-30 -80 -59 -53 -52 -53 -52 -45 -96 14 -69 49 -80 104 -31 19 17 42 30 52 30
10 0 33 17 52 38 31 33 34 34 28 12 -4 -14 -16 -42 -26 -62 -19 -38 -12 -56
16 -41 8 5 36 35 62 68 59 72 83 84 53 25 -24 -46 -23 -83 1 -88 9 -2 37 13
63 33 25 19 47 35 49 35 1 0 2 -14 2 -31 0 -47 26 -59 64 -31 37 27 37 27 44
1 8 -31 53 -18 95 26 37 40 43 61 11 45 -11 -7 -23 -10 -25 -7 -3 2 16 46 41
97 48 99 52 119 33 138 -18 18 -21 16 -56 -48z"/>
</g>
</svg>
